# xmcd
#
# Track frame offsets:
#	150
#	16117
#	27390
#	38895
#	51742
#	67120
#	78242
#	93787
#	106470
#	119567
#	133930
#	148140
#	167055
#	184980
#
# Disc length: 2676 seconds
#
# Revision: 0
# Processed by: cddbd v1.5.1PL0 Copyright (c) Steve Scherf et al.
# Submitted via: audiograbber 1.82.02
#
DISCID=cd0a720e
DTITLE=Pierre Du Preez - Pierre
DYEAR=2004
DGENRE=Country
TTITLE0=My Meisiekind
TTITLE1=Louanne
TTITLE2=Hoer As Hoog
TTITLE3=Some Times
TTITLE4=Hoog In Die Mode
TTITLE5=Don't Say You're Sorry
TTITLE6=Groter As Amerika
TTITLE7=Child Of The World
TTITLE8=Splinter Nuwe Droom
TTITLE9=On The Town Tonight
TTITLE10=Texas Bull Saloon
TTITLE11=Wings Of A Dove
TTITLE12=Wandeldeuntjie
TTITLE13=My Meisiekind (Karaoke)
EXTD=
EXTT0=
EXTT1=
EXTT2=
EXTT3=
EXTT4=
EXTT5=
EXTT6=
EXTT7=
EXTT8=
EXTT9=
EXTT10=
EXTT11=
EXTT12=
EXTT13=
PLAYORDER=
